<mxfile host="app.diagrams.net" modified="2023-07-18T11:22:43.069Z" agent="Mozilla/5.0 (Windows NT 10.0; Win64; x64) AppleWebKit/537.36 (KHTML, like Gecko) Chrome/114.0.0.0 Safari/537.36" etag="OXlU-efA5M9xsqEbrTdK" version="21.6.2" type="github">
  <diagram name="Page-1" id="c4acf3e9-155e-7222-9cf6-157b1a14988f">
    <mxGraphModel dx="2284" dy="774" grid="1" gridSize="10" guides="1" tooltips="1" connect="1" arrows="1" fold="1" page="1" pageScale="1" pageWidth="850" pageHeight="1100" background="none" math="0" shadow="0">
      <root>
        <mxCell id="0" />
        <mxCell id="1" parent="0" />
        <mxCell id="KMIAUMW3wQihTnsUFY40-1" value="MemoryOutputStream" style="swimlane;fontStyle=1;align=center;verticalAlign=top;childLayout=stackLayout;horizontal=1;startSize=26;horizontalStack=0;resizeParent=1;resizeParentMax=0;resizeLast=0;collapsible=1;marginBottom=0;whiteSpace=wrap;html=1;" vertex="1" parent="1">
          <mxGeometry x="-10" y="400" width="440" height="290" as="geometry" />
        </mxCell>
        <mxCell id="KMIAUMW3wQihTnsUFY40-2" value="- filename_ : string&lt;br&gt;- insertion_point_ : strinng&lt;br&gt;-&amp;nbsp;directory_ :&amp;nbsp;GeneratorContextImpl *&lt;br&gt;- data_ : string&lt;br&gt;- append_mode_ : bool&lt;br&gt;- inner_ :&amp;nbsp;std::unique_ptr&amp;lt;io::StringOutputStream&amp;gt;&lt;br&gt;-&amp;nbsp;info_to_insert_ :&amp;nbsp;GeneratedCodeInfo" style="text;strokeColor=none;fillColor=none;align=left;verticalAlign=top;spacingLeft=4;spacingRight=4;overflow=hidden;rotatable=0;points=[[0,0.5],[1,0.5]];portConstraint=eastwest;whiteSpace=wrap;html=1;" vertex="1" parent="KMIAUMW3wQihTnsUFY40-1">
          <mxGeometry y="26" width="440" height="124" as="geometry" />
        </mxCell>
        <mxCell id="KMIAUMW3wQihTnsUFY40-3" value="" style="line;strokeWidth=1;fillColor=none;align=left;verticalAlign=middle;spacingTop=-1;spacingLeft=3;spacingRight=3;rotatable=0;labelPosition=right;points=[];portConstraint=eastwest;strokeColor=inherit;" vertex="1" parent="KMIAUMW3wQihTnsUFY40-1">
          <mxGeometry y="150" width="440" height="18" as="geometry" />
        </mxCell>
        <mxCell id="KMIAUMW3wQihTnsUFY40-4" value="&lt;span style=&quot;border-color: var(--border-color);&quot;&gt;&lt;i&gt;+ Next(void ** , int * ) : bool&amp;nbsp;&lt;/i&gt;&lt;br style=&quot;border-color: var(--border-color);&quot;&gt;&lt;i&gt;+ BackUp(int) : void&amp;nbsp;&lt;/i&gt;&lt;br style=&quot;border-color: var(--border-color);&quot;&gt;&lt;i&gt;+ ByteCount() const : int64_t&lt;/i&gt;&lt;br&gt;&lt;br&gt;-&amp;nbsp;UpdateMetadata(const string&amp;amp; size_t, size_t, size_t) : void&lt;br&gt;- InsertShiftedInfo(const string&amp;amp;, size_t , size_t,&amp;nbsp;GeneratedCodeInfo&amp;amp;) : void&lt;br&gt;&lt;/span&gt;" style="text;strokeColor=none;fillColor=none;align=left;verticalAlign=top;spacingLeft=4;spacingRight=4;overflow=hidden;rotatable=0;points=[[0,0.5],[1,0.5]];portConstraint=eastwest;whiteSpace=wrap;html=1;" vertex="1" parent="KMIAUMW3wQihTnsUFY40-1">
          <mxGeometry y="168" width="440" height="122" as="geometry" />
        </mxCell>
        <mxCell id="KMIAUMW3wQihTnsUFY40-5" value="GeneratorContext" style="swimlane;fontStyle=0;childLayout=stackLayout;horizontal=1;startSize=26;fillColor=none;horizontalStack=0;resizeParent=1;resizeParentMax=0;resizeLast=0;collapsible=1;marginBottom=0;whiteSpace=wrap;html=1;" vertex="1" parent="1">
          <mxGeometry x="670" y="180" width="440" height="100" as="geometry" />
        </mxCell>
        <mxCell id="KMIAUMW3wQihTnsUFY40-6" value="&lt;i&gt;+&amp;nbsp;Open(const string&amp;amp; ) :&amp;nbsp;io::ZeroCopyOutputStream*&amp;nbsp;&lt;br&gt;+&amp;nbsp;OpenForAppend(const string&amp;amp; ) :&amp;nbsp;&amp;nbsp;io::ZeroCopyOutputStream*&lt;br&gt;+ OpenForInsert(const string&amp;amp; , const string&amp;amp;) : io::ZeroCopyOutputStream*&lt;br&gt;&lt;/i&gt;" style="text;strokeColor=none;fillColor=none;align=left;verticalAlign=top;spacingLeft=4;spacingRight=4;overflow=hidden;rotatable=0;points=[[0,0.5],[1,0.5]];portConstraint=eastwest;whiteSpace=wrap;html=1;" vertex="1" parent="KMIAUMW3wQihTnsUFY40-5">
          <mxGeometry y="26" width="440" height="74" as="geometry" />
        </mxCell>
        <mxCell id="KMIAUMW3wQihTnsUFY40-10" value="GeneratorContextImpl" style="swimlane;fontStyle=1;align=center;verticalAlign=top;childLayout=stackLayout;horizontal=1;startSize=26;horizontalStack=0;resizeParent=1;resizeParentMax=0;resizeLast=0;collapsible=1;marginBottom=0;whiteSpace=wrap;html=1;" vertex="1" parent="1">
          <mxGeometry x="555" y="400" width="670" height="258" as="geometry" />
        </mxCell>
        <mxCell id="KMIAUMW3wQihTnsUFY40-11" value="-&amp;nbsp;files_ :&amp;nbsp;absl::btree_map&amp;lt;string, string&amp;gt;&amp;nbsp;&lt;br&gt;-&amp;nbsp;parsed_files_ : const vector&amp;lt;const FileDescriptor *&amp;gt;&amp;amp;&lt;br&gt;- had_error_ : bool" style="text;strokeColor=none;fillColor=none;align=left;verticalAlign=top;spacingLeft=4;spacingRight=4;overflow=hidden;rotatable=0;points=[[0,0.5],[1,0.5]];portConstraint=eastwest;whiteSpace=wrap;html=1;" vertex="1" parent="KMIAUMW3wQihTnsUFY40-10">
          <mxGeometry y="26" width="670" height="64" as="geometry" />
        </mxCell>
        <mxCell id="KMIAUMW3wQihTnsUFY40-12" value="" style="line;strokeWidth=1;fillColor=none;align=left;verticalAlign=middle;spacingTop=-1;spacingLeft=3;spacingRight=3;rotatable=0;labelPosition=right;points=[];portConstraint=eastwest;strokeColor=inherit;" vertex="1" parent="KMIAUMW3wQihTnsUFY40-10">
          <mxGeometry y="90" width="670" height="8" as="geometry" />
        </mxCell>
        <mxCell id="KMIAUMW3wQihTnsUFY40-13" value="+ WriteAllToDisk(const string&amp;amp;): bool&lt;br&gt;+ WriteAllToZip(const string&amp;amp;): bool&lt;br&gt;+&amp;nbsp;AddJarManifest() : void&lt;br&gt;+&amp;nbsp;GetOutputFilenames(vector&amp;lt;string*&amp;gt; ) : void&lt;br&gt;&lt;br&gt;&lt;i style=&quot;border-color: var(--border-color);&quot;&gt;+&amp;nbsp;Open(const string&amp;amp; ) :&amp;nbsp;io::ZeroCopyOutputStream*&amp;nbsp;&lt;br style=&quot;border-color: var(--border-color);&quot;&gt;+&amp;nbsp;OpenForAppend(const string&amp;amp; ) :&amp;nbsp;&amp;nbsp;io::ZeroCopyOutputStream*&lt;br style=&quot;border-color: var(--border-color);&quot;&gt;+ OpenForInsert(const string&amp;amp; , const string&amp;amp;) : io::ZeroCopyOutputStream*&lt;/i&gt;" style="text;strokeColor=none;fillColor=none;align=left;verticalAlign=top;spacingLeft=4;spacingRight=4;overflow=hidden;rotatable=0;points=[[0,0.5],[1,0.5]];portConstraint=eastwest;whiteSpace=wrap;html=1;" vertex="1" parent="KMIAUMW3wQihTnsUFY40-10">
          <mxGeometry y="98" width="670" height="160" as="geometry" />
        </mxCell>
        <mxCell id="KMIAUMW3wQihTnsUFY40-14" value="public" style="endArrow=block;endSize=16;endFill=0;html=1;rounded=0;entryX=0.409;entryY=1;entryDx=0;entryDy=0;entryPerimeter=0;exitX=0.442;exitY=-0.012;exitDx=0;exitDy=0;exitPerimeter=0;" edge="1" parent="1" source="KMIAUMW3wQihTnsUFY40-10" target="KMIAUMW3wQihTnsUFY40-6">
          <mxGeometry width="160" relative="1" as="geometry">
            <mxPoint x="760" y="350" as="sourcePoint" />
            <mxPoint x="920" y="350" as="targetPoint" />
          </mxGeometry>
        </mxCell>
        <mxCell id="KMIAUMW3wQihTnsUFY40-18" value="ZeroCopyOutputStream" style="swimlane;fontStyle=0;childLayout=stackLayout;horizontal=1;startSize=26;fillColor=none;horizontalStack=0;resizeParent=1;resizeParentMax=0;resizeLast=0;collapsible=1;marginBottom=0;whiteSpace=wrap;html=1;" vertex="1" parent="1">
          <mxGeometry x="30" y="130" width="350" height="150" as="geometry" />
        </mxCell>
        <mxCell id="KMIAUMW3wQihTnsUFY40-19" value="&lt;i&gt;+ Next(void ** , int * ) : bool&amp;nbsp;&lt;br&gt;+ BackUp(int) : void&amp;nbsp;&lt;br&gt;+ ByteCount() const : int64_t&lt;br&gt;+ WriteAliasedRaw(const void *, int ) : bool&amp;nbsp;&lt;br&gt;+ AllowsAliasing() const : bool&lt;br&gt;+ WriteCord(const absl::Cord&amp;amp;) : bool&amp;nbsp;&lt;/i&gt;" style="text;strokeColor=none;fillColor=none;align=left;verticalAlign=top;spacingLeft=4;spacingRight=4;overflow=hidden;rotatable=0;points=[[0,0.5],[1,0.5]];portConstraint=eastwest;whiteSpace=wrap;html=1;" vertex="1" parent="KMIAUMW3wQihTnsUFY40-18">
          <mxGeometry y="26" width="350" height="124" as="geometry" />
        </mxCell>
        <mxCell id="KMIAUMW3wQihTnsUFY40-22" value="public" style="endArrow=block;endSize=16;endFill=0;html=1;rounded=0;entryX=0.489;entryY=1;entryDx=0;entryDy=0;entryPerimeter=0;exitX=0.484;exitY=0;exitDx=0;exitDy=0;exitPerimeter=0;" edge="1" parent="1" source="KMIAUMW3wQihTnsUFY40-1" target="KMIAUMW3wQihTnsUFY40-19">
          <mxGeometry width="160" relative="1" as="geometry">
            <mxPoint x="460" y="500" as="sourcePoint" />
            <mxPoint x="620" y="500" as="targetPoint" />
          </mxGeometry>
        </mxCell>
      </root>
    </mxGraphModel>
  </diagram>
</mxfile>
